<?xml version="1.0" encoding="utf-8"?>
<svg version="1.1"
     width="300"
     height="300"
     style="cursor: pointer"
     id="svg-graph"
     xmlns="http://www.w3.org/2000/svg">
    <rect id="rect" x="120" y="90" width="30" height="60" fill="#6eff3e"/>
    <path id="circle" d="M 150 150 L 150 210 A 60 60 1 0 1 90,150 z" fill="#6eff3e"/>
    <path id="triangle" d="M 150 150 L 180 150 L 150 90 z" fill="#6eff3e"/>
    <line x1="150" x2="150" y1="300" y2="0" stroke="#fff" stroke-width="3"/>
    <line x1="0" x2="300" y1="150" y2="150" stroke="#fff" stroke-width="3"/>
    <line x1="150" x2="145" y1="0" y2="10" stroke="#fff" stroke-width="3"/>
    <line x1="150" x2="155" y1="0" y2="10" stroke="#fff" stroke-width="3"/>
    <line x1="300" x2="290" y1="150" y2="145" stroke="#fff" stroke-width="3"/>
    <line x1="300" x2="290" y1="150" y2="155" stroke="#fff" stroke-width="3"/>
    <line id="second-x-tick" x1="120" x2="120" y1="145" y2="155" stroke="#fff" stroke-width="3"/>
    <line id="first-x-tick" x1="90" x2="90" y1="145" y2="155" stroke="#fff" stroke-width="3"/>
    <line id="third-x-tick" x1="180" x2="180" y1="145" y2="155" stroke="#fff" stroke-width="3"/>
    <line id="forth-x-tick" x1="210" x2="210" y1="145" y2="155" stroke="#fff" stroke-width="3"/>
    <line id="first-y-tick" x1="145" x2="155" y1="90" y2="90" stroke="#fff" stroke-width="3"/>
    <line id="second-y-tick" x1="145" x2="155" y1="120" y2="120" stroke="#fff" stroke-width="3"/>
    <line id="third-y-tick" x1="145" x2="155" y1="180" y2="180" stroke="#fff" stroke-width="3"/>
    <line id="forth-y-tick" x1="145" x2="155" y1="210" y2="210" stroke="#fff" stroke-width="3"/>
    <text id="left-r" x="85" y="140" fill="#fff" font-weight="bold">R</text>
    <text id="right-r" x="205" y="140" fill="#fff" font-weight="bold">R</text>
    <text id="top-r" x="160" y="95" fill="#fff" font-weight="bold">R</text>
    <text id="bottom-r" x="160" y="215" fill="#fff" font-weight="bold">R</text>
    <circle id="point" cx="150" cy="150" r="5" fill="#ff1867"/>
</svg>